<svg xmlns="http://www.w3.org/2000/svg" width="59.6" height="59.6" viewBox="0 0 59.6 59.6"><path d="M59.6,29.8C59.6,13.3,46.3,0,29.8,0C13.3,0,0,13.3,0,29.8c0,16.5,13.3,29.8,29.8,29.8 C46.3,59.6,59.6,46.3,59.6,29.8" fill="#f60"/><path d="M44.2,21.6c1.5,2.5,2.2,5.2,2.2,8.2c0,3-0.7,5.7-2.2,8.2c-1.5,2.5-3.4,4.5-6,6 c-2.5,1.5-5.2,2.2-8.2,2.2s-5.7-0.7-8.2-2.2c-2.5-1.5-4.5-3.4-6-6c-1.5-2.5-2.2-5.2-2.2-8.2c0-3,0.7-5.7,2.2-8.2 c1.5-2.5,3.4-4.5,6-6c2.5-1.5,5.2-2.2,8.2-2.2s5.7,0.7,8.2,2.2C40.8,17.1,42.8,19.1,44.2,21.6z M42.6,35.1c0.7-1.7,1.1-3.4,1.1-5.3 c0-1.8-0.4-3.6-1.1-5.3c-0.7-1.7-1.7-3.1-2.9-4.3c-1.2-1.2-2.7-2.2-4.3-2.9c-1.7-0.7-3.4-1.1-5.3-1.1c-1.8,0-3.6,0.4-5.3,1.1 c-1.7,0.7-3.1,1.7-4.3,2.9c-1.2,1.2-2.2,2.7-2.9,4.3c-0.7,1.7-1.1,3.4-1.1,5.3c0,1.8,0.4,3.6,1.1,5.3c0.7,1.7,1.7,3.1,2.9,4.3 c1.2,1.2,2.7,2.2,4.3,2.9c1.7,0.7,3.4,1.1,5.3,1.1c1.8,0,3.6-0.4,5.3-1.1c1.7-0.7,3.1-1.7,4.3-2.9C40.9,38.2,41.9,36.8,42.6,35.1z M26.6,22.4c0.5,0.5,0.8,1.2,0.8,1.9s-0.3,1.4-0.8,1.9c-0.5,0.5-1.2,0.8-1.9,0.8s-1.4-0.3-1.9-0.8c-0.5-0.5-0.8-1.2-0.8-1.9 s0.3-1.4,0.8-1.9c0.5-0.5,1.2-0.8,1.9-0.8S26,21.9,26.6,22.4z M37.9,33.6c-0.5,1.7-1.5,3.1-2.9,4.2c-1.4,1-3.1,1.6-4.9,1.6 c-1.8,0-3.4-0.5-4.9-1.6c-1.4-1.1-2.4-2.4-2.9-4.2c-0.1-0.4-0.1-0.7,0.1-1c0.2-0.3,0.4-0.6,0.8-0.7c0.4-0.1,0.7-0.1,1,0.1 c0.3,0.2,0.6,0.4,0.7,0.8c0.4,1.1,1,2.1,2,2.8c1,0.7,2,1.1,3.2,1.1c1.2,0,2.3-0.4,3.2-1.1c1-0.7,1.6-1.6,2-2.8 c0.1-0.4,0.3-0.6,0.7-0.8c0.3-0.2,0.7-0.2,1-0.1c0.4,0.1,0.6,0.3,0.8,0.7C38,32.9,38,33.3,37.9,33.6z M37.5,22.4 c0.5,0.5,0.8,1.2,0.8,1.9s-0.3,1.4-0.8,1.9c-0.5,0.5-1.2,0.8-1.9,0.8c-0.8,0-1.4-0.3-1.9-0.8c-0.5-0.5-0.8-1.2-0.8-1.9 s0.3-1.4,0.8-1.9c0.5-0.5,1.2-0.8,1.9-0.8C36.3,21.6,36.9,21.9,37.5,22.4z" fill="#fff"/></svg>