<svg xmlns="http://www.w3.org/2000/svg" width="204.7" height="42.2" viewBox="0 0 204.7 42.2"><path d="M135.1,0.2c-0.1,0-0.1-0.1-0.1-0.1c0-0.1,0.1-0.1,0.1-0.1h69.6v42.2	C188.7,19.7,163.7,4,135.1,0.2 M193.2,24.6c0.5-7,0.3-11,1.5-12.1c1.1-1,3.1-1.3,6.5-1.5c-7.4-0.9-7.2-0.6-8-7.8	c-0.7,7.2-0.6,7-8,7.8c3.4,0.2,5.4,0.5,6.5,1.5C192.9,13.6,192.7,17.7,193.2,24.6" fill="#f37021"/><path d="M46.6,26.4v15h4.2V29.2c1.4-1.2,2.4-0.8,5.2,1.5l1.7-3.8c-0.8-0.4-1.9-0.8-3.5-0.8c-1.6,0-2.7,0.8-3.3,1.4	l-0.2,0.2l0,0l0-1.4H46.6z M63.4,18.5h-4.2v23h4.2V18.5z M27.8,34c0,4.2,3.1,7.7,8.2,7.7c5,0,8.2-3.5,8.2-7.7c0-4.2-3.1-7.7-8.2-7.7	C30.9,26.3,27.8,29.8,27.8,34 M116,26.4h-4.2v15h4.2V26.4z M114.5,19.6c-1.2,0-2.2,1-2.2,2.2c0,1.2,1,2.2,2.2,2.2	c1.2,0,2.2-1,2.2-2.2C116.7,20.6,115.7,19.6,114.5,19.6 M118.6,30.6c-0.4,5.7,8,4.4,7.8,7.8c-0.1,1.4-1.3,1.9-2.6,1.8	c-2.1-0.2-3.4-1.4-4.5-2.7l-1.2,2.8c1.7,1,3.5,1.4,5.1,1.6c3.6,0.2,6.6-1.3,6.8-4.8c0.4-5.4-8.3-4.7-8.2-7.5	c0.1-1.2,1.4-1.8,2.8-1.7c1.4,0.1,2.6,0.9,3.8,2l1.1-2.5c-1.6-0.7-3-1-4.4-1.1C121.4,26.1,118.8,28.1,118.6,30.6 M73.4,41.8	c2,0,3.6-0.7,5-1.8l0.1,0v1.4h3.8v-23h-4.2v9.2c-1.2-0.9-2.9-1.4-4.7-1.4c-2.3,0-7.7,1.4-7.7,8C65.7,39.1,70,41.8,73.4,41.8 M100.5,41.5h1.8l8.8-20.2h-2.3l-6.1,14.2l-6-14.2h-5L100.5,41.5z M174.2,41.5v-8.3c0-5.6-4.3-7-6.8-7c-1.8,0-3.3,0.7-4.8,1.7	l-0.1,0v-1.4h-3.8v15h4.2V29.4c1.2-1.1,2.4-1.5,3.5-1.5c2.2,0,3.7,2.1,3.7,4.4v9.2H174.2z M17,23.2h-2.4L9.9,35.4l-5-14H0l7.5,20.1	h2.3L14.6,29l4.8,12.4h2.3l7.5-20h-2.3l-5.2,14L17,23.2z M39.7,34c0,3.5-1.2,6.2-3.8,6.2s-3.8-2.8-3.8-6.2c0-3.5,1.2-6.2,3.8-6.2	S39.7,30.5,39.7,34 M139.6,34c0,4.2,3.1,7.7,8.2,7.7c5,0,8.2-3.5,8.2-7.7c0-4.2-3.1-7.7-8.2-7.7C142.7,26.3,139.6,29.8,139.6,34 M151.5,34c0,3.5-1.2,6.2-3.8,6.2c-2.6,0-3.8-2.8-3.8-6.2c0-3.5,1.2-6.2,3.8-6.2C150.4,27.7,151.5,30.5,151.5,34 M78.2,29.4v9.1	c-1.1,0.9-2.1,1.6-3.6,1.6c-1.8,0-4.2-1.6-4.2-6.1C70.3,29.2,74.1,25.6,78.2,29.4 M136.9,41.5h-4.2v-15h4.2V41.5z M134.9,19.6	c1.2,0,2.2,1,2.2,2.2c0,1.2-1,2.2-2.2,2.2c-1.2,0-2.2-1-2.2-2.2C132.7,20.6,133.7,19.6,134.9,19.6"/></svg>