<?xml version="1.0" encoding="utf-8"?>
<!-- Generator: Adobe Illustrator 16.0.4, SVG Export Plug-In . SVG Version: 6.00 Build 0)  -->
<!DOCTYPE svg PUBLIC "-//W3C//DTD SVG 1.1//EN" "http://www.w3.org/Graphics/SVG/1.1/DTD/svg11.dtd">
<svg version="1.1" id="Layer_1" xmlns="http://www.w3.org/2000/svg" xmlns:xlink="http://www.w3.org/1999/xlink" x="0px" y="0px"
	 width="595.279px" height="595.247px" viewBox="0 123.342 595.279 595.247" enable-background="new 0 123.342 595.279 595.247"
	 xml:space="preserve">
<path fill="#FFFFFF" d="M297.642,123.305C133.522,123.305,0,256.827,0,420.947s133.521,297.642,297.642,297.642
	c164.119,0,297.642-133.522,297.642-297.642S461.758,123.305,297.642,123.305z M297.642,667.563
	c-135.981,0-246.617-110.635-246.617-246.617S161.66,174.33,297.642,174.33s246.617,110.635,246.617,246.617
	S433.62,667.563,297.642,667.563z"/>
<path fill="#FFFFFF" d="M412.811,305.792c-9.966-9.966-26.126-9.966-36.075,0l-79.094,79.105l-79.095-79.105
	c-9.966-9.966-26.108-9.966-36.074,0s-9.966,26.109,0,36.075l79.095,79.101l-79.098,79.105c-9.966,9.966-9.966,26.108,0,36.074
	c4.98,4.981,11.51,7.475,18.038,7.475c6.529,0,13.065-2.49,18.039-7.475l79.095-79.102l79.094,79.102
	c4.981,4.981,11.511,7.475,18.039,7.475c6.529,0,13.055-2.49,18.039-7.475c9.966-9.966,9.966-26.108,0-36.074l-79.098-79.102
	l79.095-79.101C422.777,331.904,422.777,315.757,412.811,305.792z"/>
</svg>
