<?xml version="1.0" encoding="utf-8"?>
<!-- Generator: Adobe Illustrator 16.0.4, SVG Export Plug-In . SVG Version: 6.00 Build 0)  -->
<!DOCTYPE svg PUBLIC "-//W3C//DTD SVG 1.1//EN" "http://www.w3.org/Graphics/SVG/1.1/DTD/svg11.dtd">
<svg version="1.1" id="Layer_1" xmlns="http://www.w3.org/2000/svg" xmlns:xlink="http://www.w3.org/1999/xlink" x="0px" y="0px"
	 width="32.7px" height="32.7px" viewBox="0 0 32.7 32.7" style="enable-background:new 0 0 32.7 32.7;" xml:space="preserve">
<path style="fill:#FFFFFF;" d="M30.5,8.1c1.5,2.5,2.2,5.2,2.2,8.2c0,3-0.7,5.7-2.2,8.2c-1.5,2.5-3.4,4.5-6,6
	c-2.5,1.5-5.2,2.2-8.2,2.2s-5.7-0.7-8.2-2.2c-2.5-1.5-4.5-3.4-6-6C0.7,22.1,0,19.3,0,16.4c0-3,0.7-5.7,2.2-8.2c1.5-2.5,3.4-4.5,6-6
	C10.7,0.7,13.4,0,16.4,0s5.7,0.7,8.2,2.2C27.1,3.7,29,5.6,30.5,8.1z M28.9,21.6c0.7-1.7,1.1-3.4,1.1-5.3c0-1.8-0.4-3.6-1.1-5.3
	c-0.7-1.7-1.7-3.1-2.9-4.3c-1.2-1.2-2.7-2.2-4.3-2.9c-1.7-0.7-3.4-1.1-5.3-1.1c-1.8,0-3.6,0.4-5.3,1.1C9.4,4.5,7.9,5.5,6.7,6.7
	c-1.2,1.2-2.2,2.7-2.9,4.3c-0.7,1.7-1.1,3.4-1.1,5.3c0,1.8,0.4,3.6,1.1,5.3c0.7,1.7,1.7,3.1,2.9,4.3c1.2,1.2,2.7,2.2,4.3,2.9
	c1.7,0.7,3.4,1.1,5.3,1.1c1.8,0,3.6-0.4,5.3-1.1c1.7-0.7,3.1-1.7,4.3-2.9C27.2,24.8,28.2,23.3,28.9,21.6z M12.8,9
	c0.5,0.5,0.8,1.2,0.8,1.9s-0.3,1.4-0.8,1.9c-0.5,0.5-1.2,0.8-1.9,0.8S9.5,13.4,9,12.8c-0.5-0.5-0.8-1.2-0.8-1.9S8.4,9.5,9,9
	c0.5-0.5,1.2-0.8,1.9-0.8S12.3,8.4,12.8,9z M24.1,20.2c-0.5,1.7-1.5,3.1-2.9,4.2c-1.4,1-3.1,1.6-4.9,1.6c-1.8,0-3.4-0.5-4.9-1.6
	c-1.4-1.1-2.4-2.4-2.9-4.2c-0.1-0.4-0.1-0.7,0.1-1c0.2-0.3,0.4-0.6,0.8-0.7c0.4-0.1,0.7-0.1,1,0.1c0.3,0.2,0.6,0.4,0.7,0.8
	c0.4,1.1,1,2.1,2,2.8c1,0.7,2,1.1,3.2,1.1c1.2,0,2.3-0.4,3.2-1.1c1-0.7,1.6-1.6,2-2.8c0.1-0.4,0.3-0.6,0.7-0.8
	c0.3-0.2,0.7-0.2,1-0.1c0.4,0.1,0.6,0.3,0.8,0.7C24.2,19.5,24.3,19.8,24.1,20.2z M23.7,9c0.5,0.5,0.8,1.2,0.8,1.9s-0.3,1.4-0.8,1.9
	c-0.5,0.5-1.2,0.8-1.9,0.8c-0.8,0-1.4-0.3-1.9-0.8c-0.5-0.5-0.8-1.2-0.8-1.9s0.3-1.4,0.8-1.9c0.5-0.5,1.2-0.8,1.9-0.8
	C22.6,8.2,23.2,8.4,23.7,9z"/>
</svg>
