<?xml version="1.0" encoding="utf-8"?>
<!-- Generator: Adobe Illustrator 16.0.4, SVG Export Plug-In . SVG Version: 6.00 Build 0)  -->
<!DOCTYPE svg PUBLIC "-//W3C//DTD SVG 1.1//EN" "http://www.w3.org/Graphics/SVG/1.1/DTD/svg11.dtd">
<svg version="1.1" id="Layer_1" xmlns="http://www.w3.org/2000/svg" xmlns:xlink="http://www.w3.org/1999/xlink" x="0px" y="0px"
	 width="100px" height="60.6px" viewBox="366 9.3 100 60.6" style="enable-background:new 366 9.3 100 60.6;" xml:space="preserve">
<path id="beacon" style="fill:#F37021;" d="M366.1,9.6c-0.1,0-0.2-0.1-0.2-0.2c0-0.1,0.1-0.2,0.2-0.2H466v60.6
	C443.1,37.6,407.3,15.1,366.1,9.6 M449.5,44.6c0.7-10,0.5-15.8,2.2-17.4c1.6-1.5,4.4-1.9,9.3-2.2c-10.6-1.2-10.4-0.9-11.4-11.2
	c-1.1,10.3-0.8,10-11.4,11.2c4.8,0.4,7.7,0.8,9.3,2.2C449,28.8,448.8,34.6,449.5,44.6"/>
</svg>
